<?xml version="1.0" encoding="utf-8"?>
<!-- Generator: Adobe Illustrator 15.0.0, SVG Export Plug-In . SVG Version: 6.00 Build 0)  -->
<!DOCTYPE svg PUBLIC "-//W3C//DTD SVG 1.1//EN" "http://www.w3.org/Graphics/SVG/1.1/DTD/svg11.dtd">
<svg version="1.1" id="Layer_1" xmlns="http://www.w3.org/2000/svg" xmlns:xlink="http://www.w3.org/1999/xlink" x="0px" y="0px"
	 width="103.711px" height="97.838px" viewBox="0 0 103.711 97.838" enable-background="new 0 0 103.711 97.838"
	 xml:space="preserve">
<g id="Layer_1_1_">
</g>
<g id="Layer_2">
	<g>
		<g>
			<g>
				<g>
					<defs>
						<rect id="SVGID_1_" x="24.548" y="21.832" width="55.097" height="55.096"/>
					</defs>
					<clipPath id="SVGID_2_">
						<use xlink:href="#SVGID_1_"  overflow="visible"/>
					</clipPath>
					<path clip-path="url(#SVGID_2_)" fill="none" stroke="#000000" stroke-width="1.8" d="M28.688,22.73c0,0-3.239,0-3.239,3.24
						v46.814c0,0,0,3.24,3.239,3.24h46.815c0,0,3.237,0,3.237-3.24V25.972c0,0,0-3.24-3.237-3.24L28.688,22.73L28.688,22.73z"/>
				</g>
			</g>
		</g>
	</g>
</g>
<g id="Layer_3">
</g>
<g>
	<defs>
		<rect id="SVGID_3_" x="30.175" y="34.617" width="43.842" height="29.524"/>
	</defs>
	<clipPath id="SVGID_4_">
		<use xlink:href="#SVGID_3_"  overflow="visible"/>
	</clipPath>
	<path clip-path="url(#SVGID_4_)" d="M64.296,60.685h7.033c0.293,0,0.525,0.097,0.525,0.214v1.029c0,0.118-0.232,0.208-0.525,0.208
		h-7.033c-0.292,0-0.525-0.09-0.525-0.208v-1.029C63.771,60.781,64.004,60.685,64.296,60.685 M57.071,42.649
		c4.068,0,7.373,3.362,7.373,7.5c0,4.139-3.305,7.492-7.373,7.492c-4.07,0-7.375-3.354-7.375-7.492
		C49.696,46.012,53.001,42.649,57.071,42.649 M57.071,41.495c-4.699,0-8.515,3.877-8.515,8.654c0,4.778,3.815,8.654,8.515,8.654
		c4.698,0,8.514-3.876,8.514-8.654C65.585,45.372,61.77,41.495,57.071,41.495 M57.071,40.666c5.148,0,9.328,4.249,9.328,9.483
		c0,5.235-4.18,9.483-9.328,9.483c-5.149,0-9.328-4.248-9.328-9.483C47.743,44.915,51.922,40.666,57.071,40.666 M33.573,38.245
		h9.912c0.412,0,0.748,0.328,0.748,0.74v3.599c0,0.411-0.336,0.739-0.748,0.739h-9.912c-0.412,0-0.74-0.328-0.74-0.739v-3.599
		C32.833,38.573,33.161,38.245,33.573,38.245 M61.461,34.617c-0.412,0-0.748,0.328-0.748,0.74v0.696h-29.14
		c-0.776,0-1.398,0.622-1.398,1.398v25.282c0,0.778,0.622,1.407,1.398,1.407h41.045c0.776,0,1.398-0.629,1.398-1.407V37.452
		c0-0.776-0.622-1.398-1.398-1.398h-2.267v-0.696c0-0.412-0.335-0.74-0.747-0.74H61.461z"/>
</g>
</svg>
