<svg width="66" height="50" viewBox="0 0 66 50" fill="none" xmlns="http://www.w3.org/2000/svg">
<g clip-path="url(#clip0_6_146)">
<path d="M0.002 48.51V1.504C0.364 0.616 1.222 0.001 2.222 0.001C2.282 0.001 2.342 0.003 2.401 0.008H2.393H63.729C63.786 0.003 63.853 0 63.92 0C65.16 0 66.165 1.005 66.165 2.245C66.165 2.312 66.162 2.379 66.156 2.444L66.157 2.436C66.157 11.91 66.157 21.385 66.157 30.841C66.157 36.482 66.157 42.122 66.157 47.763C66.165 47.829 66.169 47.906 66.169 47.984C66.169 49.083 65.278 49.974 64.179 49.974C64.149 49.974 64.119 49.973 64.089 49.972H64.093H2.647C2.545 49.986 2.428 49.995 2.308 49.995C1.289 49.995 0.41 49.394 0.007 48.528L0 48.512L0.002 48.51ZM62.068 4.151H4.127V32.099L4.766 31.661L15.993 23.611C16.39 23.213 16.938 22.967 17.545 22.967C18.152 22.967 18.7 23.213 19.097 23.611L30.89 32.063C32.715 33.377 34.541 34.692 36.366 35.97C36.698 36.226 37.119 36.381 37.577 36.381C38.478 36.381 39.239 35.783 39.484 34.962L39.488 34.948C39.539 34.778 39.568 34.583 39.568 34.38C39.568 33.607 39.143 32.933 38.513 32.58L38.503 32.575C35.9597 30.7863 33.471 28.9913 31.037 27.19L30.471 26.77L30.8 26.514L40.968 19.212C41.365 18.814 41.913 18.568 42.52 18.568C43.127 18.568 43.675 18.814 44.072 19.212L61.414 31.662L62.053 32.082L62.068 4.151Z" fill="#BDAE82"/>
<path d="M26.962 9.34597C29.987 9.34597 32.438 11.798 32.438 14.822C32.484 15.09 32.511 15.399 32.511 15.713C32.511 18.738 30.059 21.189 27.035 21.189C24.011 21.189 21.559 18.737 21.559 15.713C21.559 15.398 21.586 15.09 21.637 14.789L21.632 14.821C21.632 14.82 21.632 14.82 21.632 14.819C21.632 11.846 24.001 9.42597 26.955 9.34497H26.963L26.962 9.34597Z" fill="#CCBA8D"/>
</g>
<defs>
<clipPath id="clip0_6_146">
<rect width="66" height="50" fill="white"/>
</clipPath>
</defs>
</svg>
